<?xml version="1.0" encoding="UTF-8"?>
<svg xmlns="http://www.w3.org/2000/svg" viewBox="240 120 530 405" width="530" height="405">
  <path
     fill="#3d1b21"
     d="m 622.273,179.303 c 17.972,-7.144 49.451,-35.418 60.607,-51.657 5.058,-7.363 9.767,-17.361 13.601,-25.629 9.089,20.064 12.014,43.195 13.036,65.016 21.261,-8.144 41.707,-18.278 61.064,-30.265 5.138,-3.167 9.6,-6.465 14.535,-9.665 -6.1,31.725 -20.477,69.319 -42.269,93.255 -8.987,9.871 -18.571,17.786 -28.897,26.121 5.895,14.94 12.097,28.588 17.691,44.077 13.733,38.023 29.7,105.395 19.653,145.028 -31.98732,118.12547 -450.7991,137.45473 -485.037,-7.126 -6.678,-27.661 -5.797,-47.733 -0.401,-75.394 7.336,-37.607 21.342,-69.965 38.428,-103.965 -8.328,-6.53 -14.146,-10.608 -21.988,-18.22 -25.287,-24.546 -45.143,-67.758 -51.254,-102.444 27.06,17.796 44.366,26.576 74.5,37.978 1.561,-27.066 0.265,-34.992 13.403,-60.997 14.532,30.336 24.408,43.443 53.941,61.866 5.532,3.451 13.427,9.257 19.254,11.681 38.752,-12.328 85.754,-23.206 126.609,-21.386 29.633,1.32 76.119,10.121 103.524,21.726 z"
     id="path2"
     />
  <defs
     id="defs4">
    <linearGradient
       id="gradient_0"
       gradientUnits="userSpaceOnUse"
       x1="502.88174"
       y1="116.68886"
       x2="523.17017"
       y2="442.92355">
      <stop
         offset="0"
         stop-color="#EFEFDE"
         id="stop3" />
      <stop
         offset="1"
         stop-color="#FDFEFF"
         id="stop4" />
    </linearGradient>
  </defs>
  <path
     fill="url(#gradient_0)"
     d="M315.386 178.853C315.585 169.61 315.269 160.196 315.6 150.949C315.728 147.358 317.614 128.171 320.222 126.574L320.593 127.061C324.376 132.103 327.228 137.697 331.107 142.677C344.202 159.486 361.585 172.179 379.607 183.238C382.794 185.194 388.238 188.643 391.512 190.264C397.012 189.361 404.117 186.863 409.6 185.254C418.498 182.598 427.507 180.332 436.603 178.461C484.512 168.989 547.108 168.26 594.109 182.827C604.1 185.924 610.714 189.8 619.795 193.834C624.687 191.507 629.394 188.231 633.973 185.338C651.25 174.423 667.892 162.382 680.885 146.401C682.594 144.299 693.349 127.871 694.136 127.47C695.708 128.354 695.359 128.54 696.29 130.619C701.622 147.133 697.343 165.866 697.966 181.928C714.316 176.657 728.325 171.394 743.83 163.793C748.716 161.397 763.448 152.513 767.449 152.102C768.224 160.99 751.229 190.522 745.768 198.803C741.725 204.919 737.334 210.798 732.619 216.412C698.983 256.361 675.081 257.488 626.223 261.551C610.99 262.818 594.537 266.678 581.069 274.196C577.372 276.26 572.311 281.073 568.737 283.767C553.839 299.812 544.242 317.245 545.301 339.55C547.016 375.658 576.88 405.856 613.722 403.847C650.491 401.842 677.265 367.633 675.358 331.836C674.391 316.161 668.115 302.454 658.616 290.108C663.887 286.91 676.99 280.763 682.844 277.957L681.46 275.781L686.46 274.839C695.412 271.85 702.466 268.952 711.069 265.101L712.518 264.745C715.068 266.594 717.154 274.203 718.34 277.313C728.666 304.382 737.255 331.932 741.818 360.601C745.931 386.435 751.562 425.89 735.494 448.299C709.231 484.924 620.664 510.461 578.278 517.121C560.404 519.929 541.848 522.083 523.727 521.43C501.053 522.215 477.74 519.269 455.18 516.62C454.813 516.628 454.445 516.637 454.078 516.645C398.432 511.193 334.767 500.826 292.756 460.675C278.276 446.836 270.836 417.611 270.965 399.564C270.498 358.802 285.008 305.408 303.018 269.181C308.982 272.235 315.121 275.2 321.137 278.172C323.452 279.064 325.69 279.937 328.047 280.725L328.021 281C332.447 283.167 335.31 284.339 339.784 285.981C342.707 287.054 353.55 290.33 355.424 291.601C347.518 302.002 342.325 313.086 340.328 326.091C337.566 343.418 341.901 361.129 352.354 375.222C362.855 389.438 378.712 400.382 396.41 402.949C413.022 405.421 429.932 401.134 443.361 391.048C458.398 379.796 468.33 363.015 470.958 344.418C473.932 321.974 464.461 304.512 451.394 287.464C443.633 280.936 439.578 277.426 430.507 272.712C392.006 252.706 342.945 265.174 307.224 240.216C283.515 223.651 265.863 197.009 253.736 171.102C251.801 166.967 247.427 157.318 246.672 153.112C245.566 150.4 244.695 148.28 243.837 145.472C249.856 148.605 255.41 152.258 261.251 155.689C278.312 165.708 296.794 172.286 315.386 178.853Z"
     id="path4" />
  <path
     fill="#A7B7C2"
     d="M711.069 265.101L712.518 264.745C715.068 266.594 717.154 274.203 718.34 277.313C728.666 304.382 737.255 331.932 741.818 360.601C745.931 386.435 751.562 425.89 735.494 448.299C709.231 484.924 620.664 510.461 578.278 517.121C560.404 519.929 541.848 522.083 523.727 521.43C501.053 522.215 477.74 519.269 455.18 516.62C454.813 516.628 454.445 516.637 454.078 516.645C398.432 511.193 334.767 500.826 292.756 460.675C278.276 446.836 270.836 417.611 270.965 399.564C270.498 358.802 285.008 305.408 303.018 269.181C308.982 272.235 315.121 275.2 321.137 278.172C323.452 279.064 325.69 279.937 328.047 280.725L328.021 281C319.156 294.904 310.709 311.813 308.435 328.325L308.533 328.868C310.027 337.651 309.814 348.43 311.263 357.724C315.261 383.388 327.444 407.986 348.791 423.467C364.891 435.143 382.316 440.528 402.134 436.996C425.419 432.846 445.624 415.536 458.973 396.706C464.928 388.306 469.545 374.824 472.362 364.784C472.262 368.462 471.53 381.099 472.28 383.603C477.286 373.448 485.115 365.577 496.013 361.914C504.953 358.9 514.728 359.585 523.16 363.816C532.55 368.473 539.753 376.608 543.239 386.492C544.831 383.918 544.893 367.587 544.993 363.467L546.26 362.469C551.154 383.789 552.923 392.213 568.43 408.363C574.429 414.636 581.18 420.145 588.529 424.765C629.279 450.12 672.281 434.605 696.817 395.35C702.337 386.519 707.873 373.507 709.955 363.277C711.293 331.478 701.792 303.463 682.844 277.957L681.46 275.781L686.46 274.839C695.412 271.85 702.466 268.952 711.069 265.101Z"
     id="path5" />
  <path
     fill="#3D1B21"
     d="M472.28 383.603C477.286 373.448 485.115 365.577 496.013 361.914C504.953 358.9 514.728 359.585 523.16 363.816C532.55 368.473 539.753 376.608 543.239 386.492C545.068 399.112 541.794 408.484 537.22 420.325L536.809 420.978C534.75 424.298 532.456 429.689 530.28 433.485C523.756 444.818 516.229 455.544 507.789 465.534C496.761 454.031 487.655 442.028 480.672 427.694C479.69 425.679 478.49 422.836 477.413 421.029C471.832 407.93 469.365 397.757 472.28 383.603Z"
     id="path6" />
  <path
     fill="#833123"
     d="M506.644 365.694C514.507 365.663 521.617 368.544 527.687 373.331C542.001 384.618 538.159 389.765 527.985 401.898C521.372 409.785 515.413 416.173 507.815 423.12C505.174 422.877 476.85 391.729 477.168 386.957C477.976 374.841 496.695 366.876 506.644 365.694Z"
     id="path7" />
  <path
     fill="#C2AA92"
     d="M504.79 368.574C505.954 368.511 508.936 368.287 509.85 368.72C511.858 369.692 513.44 371.368 514.296 373.429C518.036 382.214 511.931 398.628 508.521 406.805L507.876 407.666C507.752 407.542 507.628 407.418 507.505 407.294C502.529 395.143 493.937 378.458 504.79 368.574Z"
     id="path8" />
  <path
     fill="#833123"
     d="M498.45 432.309C500.466 433.681 504.063 440.203 507.575 439.584C510.549 439.06 513.652 433.807 515.191 431.321C514.285 435.29 513.584 437.776 512.292 441.639C510.953 445.455 509.541 449.242 507.465 452.714C504.901 448.228 500.172 437.232 498.45 432.309Z"
     id="path9" />
  <path
     fill="#707E92"
     d="M711.069 265.101L712.518 264.745C715.068 266.594 717.154 274.203 718.34 277.313C728.666 304.382 737.255 331.932 741.818 360.601C745.931 386.435 751.562 425.89 735.494 448.299C709.231 484.924 620.664 510.461 578.278 517.121C560.404 519.929 541.848 522.083 523.727 521.43C527.037 520.776 531.513 520.311 534.891 519.954C588.544 514.284 637.976 505.298 683.194 474.193C717.566 450.549 734.691 432.192 735.43 387.685C736.041 350.925 727.013 315.27 716.481 280.321C715.661 277.609 712.652 266.772 711.069 265.101Z"
     id="path10" />
  <path
     fill="#707E92"
     d="M321.137 278.172C323.452 279.064 325.69 279.937 328.047 280.725L328.021 281C319.156 294.904 310.709 311.813 308.435 328.325C299.077 361.888 308.869 415.942 331.735 442.408C369.669 486.317 435.157 457.983 471.841 427.038C460.587 446.955 440.262 459.118 419.259 466.71C397.681 474.51 374.541 477.361 353.285 467.084C329.603 455.634 311.713 431.809 303.115 407.492C290.218 371.011 297.912 329.083 313.08 294.492C315.578 288.796 318.429 283.757 321.137 278.172Z"
     id="path11" />
  <path
     fill="#707E92"
     d="M681.46 275.781L686.46 274.839C712.915 313.406 722.45 350.618 713.625 397.237C708.349 424.612 692.493 448.803 669.496 464.562C628.531 492.328 569.633 467.474 543.146 430.075C542.598 429.3 542.134 428.386 541.72 427.532L542.011 427.069C548.539 432.202 552.971 436.65 560.203 441.749C582.298 457.325 612.466 470.826 640.052 466.831C658.621 464.141 670.3 461.68 681.731 446.665C699.909 422.788 711.073 393.379 709.955 363.277C711.293 331.478 701.792 303.463 682.844 277.957L681.46 275.781Z"
     id="path12" />
  <path
     fill="#707E92"
     d="M270.965 399.564L271.156 399.976C272.698 403.38 273.869 407.247 275.16 410.79C286.577 442.099 313.036 464.46 342.787 477.801C363.915 487.274 385.967 494.093 407.655 502.099C411.516 503.525 415.45 504.848 419.377 506.079C426.635 508.332 433.935 510.444 441.275 512.414C444.724 513.351 452.239 515.135 455.18 516.62C454.813 516.628 454.445 516.637 454.078 516.645C398.432 511.193 334.767 500.826 292.756 460.675C278.276 446.836 270.836 417.611 270.965 399.564Z"
     id="path13" />
  <path
     fill="#9B9FAE"
     d="M507.789 465.534C516.229 455.544 523.756 444.818 530.28 433.485C532.456 429.689 534.75 424.298 536.809 420.978L537.22 420.325L538.139 420.599C541.814 430.117 525.011 454.558 519.987 463.186C517.274 467.846 512.006 475.55 508.413 479.502C495.021 465.596 479.343 443.039 474.187 424.24C473.759 422.679 476.28 421.593 477.413 421.029C478.49 422.836 479.69 425.679 480.672 427.694C487.655 442.028 496.761 454.031 507.789 465.534Z"
     id="path14" />
  <path
     fill="#A7B7C2"
     d="M391.512 190.264C397.012 189.361 404.117 186.863 409.6 185.254C418.498 182.598 427.507 180.332 436.603 178.461C484.512 168.989 547.108 168.26 594.109 182.827C604.1 185.924 610.714 189.8 619.795 193.834C608.17 199.053 583.839 220.164 573.793 229.121C573.666 229.064 573.539 229.007 573.412 228.95C555.563 233.407 538.084 248.481 524.306 259.419C516.613 265.527 515.575 266.632 510.999 269.675L510.356 270.099C501.905 265.152 496.983 258.922 489.357 253.619C479.851 247.008 468.968 242.945 459.139 236.378C450.95 230.906 435.422 215.921 426.502 213.735C425.06 213.358 395.694 192.937 391.512 190.264Z"
     id="path15" />
  <path
     fill="#707E92"
     d="M246.672 153.112C265.997 175.314 281.692 192.411 308.361 206.526C320.45 212.924 330.996 217.868 344.028 222.229C374.894 232.557 411.458 237.283 435.655 260.94C443.906 269.007 448.875 276.161 451.394 287.464C443.633 280.936 439.578 277.426 430.507 272.712C392.006 252.706 342.945 265.174 307.224 240.216C283.515 223.651 265.863 197.009 253.736 171.102C251.801 166.967 247.427 157.318 246.672 153.112Z"
     id="path16" />
  <path
     fill="#707E92"
     d="M767.449 152.102C768.224 160.99 751.229 190.522 745.768 198.803C741.725 204.919 737.334 210.798 732.619 216.412C698.983 256.361 675.081 257.488 626.223 261.551C610.99 262.818 594.537 266.678 581.069 274.196C577.372 276.26 572.311 281.073 568.737 283.767C585.262 241.44 633.344 234.625 671.194 220.85C688.007 214.731 708.519 205.982 723.496 196.213C728.326 193.065 732.915 189.562 737.226 185.733C742.039 181.452 766.63 156.029 767.449 152.102Z"
     id="path17" />
  <path
     fill="#707E92"
     d="M426.502 213.735C435.422 215.921 450.95 230.906 459.139 236.378C468.968 242.945 479.851 247.008 489.357 253.619C496.983 258.922 501.905 265.152 510.356 270.099L510.999 269.675C515.575 266.632 516.613 265.527 524.306 259.419C538.084 248.481 555.563 233.407 573.412 228.95C573.539 229.007 573.666 229.064 573.793 229.121C566.607 236.646 559.738 245.155 552.614 252.451C544.343 260.92 536.181 265.311 529.351 276.127C520.047 290.859 515.328 308.075 507.994 323.101C500.063 310.977 494.219 289.419 486.587 276.317C483.077 268.233 470.594 263.367 466.264 257.453C453.643 240.214 442.322 227.991 426.502 213.735Z"
     id="path18" />
  <path
     fill="#707E92"
     d="M696.29 130.619C701.622 147.133 697.343 165.866 697.966 181.928C682.867 186.341 672.262 189.184 656.865 191.812C655.96 191.571 656.37 191.805 655.676 191.044C656.264 188.87 660.25 183.552 661.57 181.239C664.328 176.408 667.753 171.218 670.141 166.196C683.132 153.034 686.453 145.16 696.29 130.619Z"
     id="path19" />
  <path
     fill="#707E92"
     d="M315.386 178.853C315.585 169.61 315.269 160.196 315.6 150.949C315.728 147.358 317.614 128.171 320.222 126.574C319.314 136.671 335.666 154.899 340.761 162.448C346.619 175.435 352.993 180.631 360.054 190.745C348.421 188.796 326.356 183.158 315.386 178.853Z"
     id="path20" />
  <path
     fill="#A7B7C2"
     d="M340.761 162.448C346.557 166.333 355.427 175.44 362.09 180.501C368.304 185.222 379.509 191.562 384.441 195.93L366.527 192.093C365.757 191.927 360.425 190.884 360.054 190.745C352.993 180.631 346.619 175.435 340.761 162.448Z"
     id="path21" />
  <path
     fill="#A7B7C2"
     d="M626.874 198.061C636.487 193.017 647.109 185.392 655.503 178.537C659.961 174.897 665.281 168.796 670.141 166.196C667.753 171.218 664.328 176.408 661.57 181.239C660.25 183.552 656.264 188.87 655.676 191.044C656.37 191.805 655.96 191.571 656.865 191.812C656.984 191.771 649.668 193.114 649.114 193.229C641.686 194.771 634.272 196.381 626.874 198.061Z"
     id="path22" />
  <path
     fill="#FCFCFA"
     d="M545.211 354.734L546.26 362.469L544.993 363.467C544.94 360.838 545.13 357.424 545.211 354.734Z"
     id="path23" />
  <defs
     id="defs24">
    <linearGradient
       id="gradient_1"
       gradientUnits="userSpaceOnUse"
       x1="500.46701"
       y1="565.84039"
       x2="402.14075"
       y2="779.4281">
      <stop
         offset="0"
         stop-color="#5C748F"
         id="stop23" />
      <stop
         offset="1"
         stop-color="#C2ADA6"
         id="stop24" />
    </linearGradient>
  </defs>
  <defs
     id="defs44">
    <linearGradient
       id="gradient_2"
       gradientUnits="userSpaceOnUse"
       x1="636.98737"
       y1="388.00647"
       x2="583.63367"
       y2="283.6424">
      <stop
         offset="0"
         stop-color="#EAA624"
         id="stop43" />
      <stop
         offset="1"
         stop-color="#CC8B32"
         id="stop44" />
    </linearGradient>
  </defs>
  <path
     fill="url(#gradient_2)"
     d="M606.926 276.531C608.683 275.594 610.612 276.072 612.503 275.802C622.354 274.397 632.197 275.407 640.706 281.085C644.894 283.834 651.831 288.262 652.306 293.66C672.404 313.491 675.885 344.681 660.653 368.454C645.421 392.228 615.632 402.101 589.216 392.13C562.8 382.16 546.964 355.065 551.24 327.156C555.515 299.247 578.737 278.136 606.926 276.531Z"
     id="path44" />
  <path
     fill="#833123"
     d="M606.926 276.531C608.683 275.594 610.612 276.072 612.503 275.802C622.354 274.397 632.197 275.407 640.706 281.085L640.821 283.996L640.247 284.464C630.152 278.626 618.569 275.868 606.926 276.531Z"
     id="path45" />
  <path
     fill="#864A1F"
     d="M640.706 281.085C644.894 283.834 651.831 288.262 652.306 293.66C648.693 290.095 644.641 287.005 640.247 284.464L640.821 283.996L640.706 281.085Z"
     id="path46" />
  <path
     fill="#EBB55F"
     d="M611.931 284.209C624.822 284.077 637.072 287.869 646.373 297.049C655.847 306.304 661.158 319.009 661.089 332.253C661.06 351.457 650.908 369.947 633.727 378.892C624.728 383.577 616.664 384.53 606.708 384.499C567.476 382.443 541.808 336.748 568.281 304.961C578.374 292.842 596.313 285.351 611.931 284.209Z"
     id="path47" />
  <path
     fill="#3D1B21"
     d="M640.806 322.365C646.196 330.817 644.35 344.618 640.152 353.231C636.157 361.432 629.024 367.676 620.366 370.549C600.963 377.077 579.259 366.755 573.044 347.091C569.873 336.884 570.987 325.825 576.131 316.456C580.755 307.862 587.933 302.013 597.308 299.264C605.737 296.798 614.802 297.81 622.481 302.072C628.011 300.808 633.793 302.634 637.595 306.844C641.397 311.055 642.626 316.992 640.806 322.365Z"
     id="path48" />
  <path
     fill="#FCFCFA"
     d="M622.481 302.072C628.011 300.808 633.793 302.634 637.595 306.844C641.397 311.055 642.626 316.992 640.806 322.365C638.385 329.513 631.212 333.918 623.742 332.844C616.272 331.77 610.631 325.523 610.321 317.983C610.012 310.443 615.124 303.754 622.481 302.072Z"
     id="path49" />
  <path
     fill="#EBB55F"
     d="M367.247 289.422L367.674 288.954C375.203 280.864 391.872 272.815 402.747 272.387C435.543 272.962 465.017 304.725 464.328 337.632C463.866 353.661 457.08 368.857 445.453 379.902C420.977 403.174 384.585 400.977 362.01 376.25C351.306 364.493 345.647 349.002 346.25 333.114C347.102 314.978 354.883 302.021 367.247 289.422Z"
     id="path50" />
  <path
     fill="#C58843"
     d="M367.247 289.422L367.674 288.954C375.203 280.864 391.872 272.815 402.747 272.387C402.677 275.112 402.552 277.902 402.656 280.619L402.27 281.728C393.655 281.077 382.903 283.198 374.997 286.595C373.603 287.194 368.48 289.312 367.247 289.422Z"
     id="path51" />
  <path
     fill="#C58843"
     d="M402.656 280.619C422.562 282.089 436.353 289.385 449.318 304.556C453.28 309.192 455.792 313.094 458.068 318.777C440.358 294.258 432.991 285.98 402.27 281.728L402.656 280.619Z"
     id="path52" />
  <path
     fill="#3D1B21"
     d="M441.77 320.453C443.522 320.815 445.289 327.653 445.446 329.265C447.449 349.806 432.716 368.98 412.169 371.899C402.746 373.246 393.18 370.716 385.655 364.887C368.535 351.809 366.318 325.995 379.426 309.338C385.344 301.865 393.971 297.029 403.434 295.881C410.213 295.114 423.944 296.957 429.043 301.069C428.295 302.022 427.165 301.869 425.568 302.149C430.324 301.889 434.938 303.817 438.095 307.384C441.252 310.95 442.605 315.764 441.77 320.453Z"
     id="path53" />
  <path
     fill="#FCFCFA"
     d="M425.568 302.149C430.324 301.889 434.938 303.817 438.095 307.384C441.252 310.95 442.605 315.764 441.77 320.453C440.341 328.474 432.979 334.042 424.872 333.234C416.765 332.426 410.647 325.514 410.83 317.369C411.012 309.225 417.434 302.593 425.568 302.149Z"
     id="path54" />
  <path
     fill="#FCFCFA"
     d="M344.963 259.294C355.541 261.057 366.154 262.6 376.796 263.922C381.406 264.535 388.609 265.272 392.987 266.191C373.404 273.875 369.699 277.594 355.424 291.601C353.55 290.33 342.707 287.054 339.784 285.981C335.31 284.339 332.447 283.167 328.021 281L328.047 280.725C333.72 273.236 338.897 266.494 344.963 259.294Z"
     id="path88" />
  <path
     fill="#FCFCFA"
     d="M626.825 267.704C636.843 266.797 659.945 265.088 668.646 262.511C673.01 266.844 677.282 271.268 681.46 275.781L682.844 277.957C676.99 280.763 663.887 286.91 658.616 290.108C649.295 278.989 639.722 273.49 626.825 267.704Z"
     id="path89" />
</svg>
